<?xml version="1.0" encoding="UTF-8"?>
<svg version="1.1" xmlns="http://www.w3.org/2000/svg" width="512" height="512">
<path d="M0 0 C18.11807149 18.7220072 24.81926278 42.38358061 24.52734375 67.90234375 C24.17280394 81.14803916 20.86950022 93.25085317 16.3125 105.625 C16.92738281 105.89441406 17.54226563 106.16382813 18.17578125 106.44140625 C22.10305575 108.61684349 23.93127076 112.48131228 25.3125 116.625 C26.28536662 126.95971423 24.6358189 135.98602271 17.9375 144.125 C15.05002114 147.15530039 12.28228741 149.1478698 8.3125 150.625 C7.6525 150.625 6.9925 150.625 6.3125 150.625 C6.18875 151.594375 6.065 152.56375 5.9375 153.5625 C3.6875885 168.94012233 -2.20124061 181.88389351 -13.6875 192.625 C-14.35652344 193.09091553 -15.02554688 193.55683105 -15.71484375 194.03686523 C-19.03763663 196.49231145 -21.31721855 198.25891192 -22.42382812 202.34155273 C-22.69639173 205.44095422 -22.74542255 208.45205882 -22.6875 211.5625 C-22.70490234 213.16061523 -22.70490234 213.16061523 -22.72265625 214.79101562 C-22.74609393 217.40431715 -22.73342338 220.01215088 -22.6875 222.625 C-21.82382813 222.67011719 -20.96015625 222.71523438 -20.0703125 222.76171875 C-15.58790392 223.90561286 -13.63277322 226.11202504 -10.5625 229.4375 C-9.79486328 230.23897461 -9.79486328 230.23897461 -9.01171875 231.05664062 C-6.86978895 233.29492973 -4.78424038 235.50565292 -2.83203125 237.9140625 C0.29340219 240.40757771 3.65019386 240.68002175 7.5 241.1875 C13.73639994 242.13295041 19.36474363 243.471502 25.3125 245.625 C26.3025 245.625 27.2925 245.625 28.3125 245.625 C29.3025 243.315 30.2925 241.005 31.3125 238.625 C30.40886719 238.58761719 29.50523437 238.55023438 28.57421875 238.51171875 C26.80498047 238.41310547 26.80498047 238.41310547 25 238.3125 C23.82824219 238.25449219 22.65648437 238.19648438 21.44921875 238.13671875 C18.3125 237.625 18.3125 237.625 16.64355469 236.51489258 C14.64718719 233.68035831 14.90631397 231.31070495 14.87890625 227.875 C14.8736644 227.22047852 14.86842255 226.56595703 14.86302185 225.89160156 C14.85660737 224.50978004 14.85793134 223.12790387 14.86645508 221.74609375 C14.87497251 219.63182476 14.84619269 217.52025245 14.81445312 215.40625 C14.81284112 214.06250081 14.81341863 212.71874684 14.81640625 211.375 C14.81455322 210.15296875 14.8127002 208.9309375 14.81079102 207.671875 C15.3125 204.625 15.3125 204.625 16.89091492 202.95585632 C20.22522292 201.12338514 22.76242487 201.26505064 26.55957031 201.28442383 C27.28191864 201.28398575 28.00426697 201.28354767 28.74850464 201.28309631 C31.12948904 201.28518171 33.50976403 201.30850014 35.890625 201.33203125 C37.54400243 201.33762811 39.19738485 201.34189778 40.85076904 201.34489441 C45.19756868 201.35633614 49.54406649 201.38579741 53.89074707 201.41900635 C58.32816485 201.44972179 62.7656315 201.46340289 67.203125 201.47851562 C75.90638834 201.51066787 84.6094066 201.56185594 93.3125 201.625 C92.9825 200.965 92.6525 200.305 92.3125 199.625 C91.58100809 192.83257512 91.50530847 186.93302853 95.71484375 181.31640625 C100.40370851 176.35240029 104.48150289 174.32962301 111.375 174.0625 C117.58192025 174.35173936 121.20830102 175.67020097 125.7734375 180.015625 C128.75262196 183.28756169 130.48087003 186.30052418 131.3125 190.625 C131.2030876 192.36272628 131.04600719 194.09784903 130.8515625 195.828125 C130.70388428 197.17632324 130.70388428 197.17632324 130.55322266 198.55175781 C130.47378418 199.23592773 130.3943457 199.92009766 130.3125 200.625 C131.21816711 200.63086624 132.12383423 200.63673248 133.0569458 200.64277649 C141.59123821 200.70067567 150.12526813 200.77273641 158.65930557 200.86071491 C163.04677749 200.90544612 167.43415596 200.94469607 171.82177734 200.97143555 C176.05594679 200.99744125 180.28975717 201.03782396 184.52370453 201.08818626 C186.1391834 201.10487354 187.7547244 201.11637624 189.3702774 201.12261391 C191.63297687 201.13223504 193.89475388 201.16026869 196.15722656 201.19262695 C197.44518127 201.20373001 198.73313599 201.21483307 200.06011963 201.22627258 C203.49581729 201.64747389 204.94280379 202.13674936 207.3125 204.625 C207.81420898 207.671875 207.81420898 207.671875 207.80859375 211.375 C207.81004898 212.02952148 207.81150421 212.68404297 207.81300354 213.35839844 C207.81134579 214.74027972 207.79979793 216.1221797 207.77905273 217.50390625 C207.75009607 219.61798592 207.75844292 221.72955736 207.77148438 223.84375 C207.76524657 225.18751218 207.75685528 226.53126644 207.74609375 227.875 C207.73634521 229.09703125 207.72659668 230.3190625 207.71655273 231.578125 C207.3125 234.625 207.3125 234.625 206.20336914 236.50390625 C203.39211838 238.17069302 200.86422141 238.1521425 197.625 238.3125 C196.44550781 238.37824219 195.26601563 238.44398438 194.05078125 238.51171875 C193.14714844 238.54910156 192.24351562 238.58648437 191.3125 238.625 C192.05802124 240.26637939 192.05802124 240.26637939 192.81860352 241.94091797 C197.3646837 251.9540675 201.89663408 261.97347161 206.41465759 271.99931335 C208.86446295 277.4314708 211.33010746 282.85585457 213.81636047 288.27142334 C215.22653556 291.35017199 216.62318627 294.43492284 218.01657104 297.52130127 C218.66677958 298.95351545 219.32288004 300.38307088 219.98513794 301.80975342 C225.72881948 314.19651953 226.48879339 322.46607556 222.3125 335.625 C218.44108395 346.0025458 211.12174557 352.78839201 201.3125 357.625 C190.02207306 362.63427088 177.74596162 362.76106111 166.203125 358.46875 C155.44793782 353.55521271 148.40132501 346.49205225 143.46875 335.75 C139.38093158 324.70184211 140.03176701 315.74038705 144.8203125 305.16796875 C145.17822876 304.35894104 145.53614502 303.54991333 145.90490723 302.71636963 C147.07432388 300.07805462 148.25582677 297.44534513 149.4375 294.8125 C150.24873524 292.98808981 151.05911087 291.16329716 151.86865234 289.33813477 C153.52542164 285.60569746 155.18667937 281.87530925 156.8515625 278.14648438 C159.84794442 271.43112608 162.8126719 264.70193835 165.77539062 257.97167969 C168.61651273 251.52076694 171.46524017 245.07320608 174.3125 238.625 C158.8025 238.295 143.2925 237.965 127.3125 237.625 C127.6425 285.475 127.9725 333.325 128.3125 382.625 C132.6025 384.275 136.8925 385.925 141.3125 387.625 C153.43010392 394.34453551 164.32899621 404.41382917 169.3125 417.625 C169.71484375 420.765625 169.71484375 420.765625 169.3125 423.625 C166.51784 426.28152841 164.573115 427.00090983 160.75830078 427.01268005 C159.3956308 427.027537 159.3956308 427.027537 158.00543213 427.04269409 C157.01621765 427.03819244 156.02700317 427.0336908 155.0078125 427.02905273 C153.96026794 427.03591599 152.91272339 427.04277924 151.83343506 427.04985046 C148.36798582 427.06816405 144.90298728 427.06427468 141.4375 427.05859375 C139.03141125 427.06315303 136.62532381 427.06845783 134.21923828 427.07447815 C129.17540192 427.08341799 124.13172383 427.0809757 119.08789062 427.07104492 C112.61776517 427.05954854 106.14818492 427.07977318 99.6781311 427.10896206 C94.70935586 427.12728852 89.74071216 427.12703876 84.77191162 427.12132454 C82.38603958 427.12117092 80.00015884 427.12724856 77.61431885 427.13961601 C74.28159135 427.1544583 70.94988264 427.14389823 67.6171875 427.12670898 C66.62797302 427.13637695 65.63875854 427.14604492 64.61956787 427.15600586 C57.96275419 427.08394437 57.96275419 427.08394437 54.67236328 424.76161194 C53.3125 422.625 53.3125 422.625 53.25 419.9375 C56.15690113 410.87480825 61.71158678 404.33741513 68.3125 397.625 C68.951875 396.97273438 69.59125 396.32046875 70.25 395.6484375 C77.12169196 389.14896219 85.42770793 385.58659736 94.3125 382.625 C94.6425 334.775 94.9725 286.925 95.3125 237.625 C79.8025 237.625 64.2925 237.625 48.3125 237.625 C52.2725 246.65875 52.2725 246.65875 56.3125 255.875 C57.18632324 257.87409424 58.06014648 259.87318848 58.96044922 261.93286133 C62.92456497 270.99355423 66.933994 280.02821004 71.0703125 289.01171875 C72.17366497 291.4258659 73.27573 293.84059673 74.37744141 296.25549316 C75.07833459 297.78084786 75.78591787 299.30314805 76.50048828 300.82214355 C82.41501711 313.39993759 83.98456984 322.23307569 79.3125 335.625 C74.93565295 346.99264442 66.95840523 353.2935876 56.31640625 358.625 C46.92704797 362.68526304 36.0067111 362.37148413 26.3125 359.625 C13.52737069 354.54554518 6.04264592 347.93193274 0.30859375 335.4375 C-0.54907555 333.18352851 -1.119972 330.9692546 -1.6875 328.625 C-1.90962158 327.79726074 -2.13174316 326.96952148 -2.3605957 326.11669922 C-4.48737593 313.95511089 1.86365048 303.7584658 6.9375 293.0625 C7.86595605 291.05657443 8.79175926 289.04941874 9.71484375 287.04101562 C11.46846181 283.23026415 13.23421194 279.4255417 15.00878906 275.62451172 C17.60930599 270.02355049 20.03354998 264.3651149 22.3125 258.625 C17.83923144 256.15675135 13.76095193 254.89317095 8.75 253.9375 C7.46996094 253.68613281 6.18992187 253.43476563 4.87109375 253.17578125 C1.91277465 252.71790749 -0.71300072 252.58004294 -3.6875 252.625 C-4.3988208 254.4347229 -4.3988208 254.4347229 -5.12451172 256.28100586 C-6.88057875 260.74340619 -8.64567851 265.20218626 -10.41357422 269.65991211 C-11.17842766 271.59219909 -11.94080584 273.52546771 -12.70068359 275.4597168 C-13.7914011 278.2348605 -14.89088206 281.00638775 -15.9921875 283.77734375 C-16.3318454 284.64713364 -16.6715033 285.51692352 -17.02145386 286.41307068 C-17.34163483 287.21382523 -17.6618158 288.01457977 -17.99169922 288.83959961 C-18.27149628 289.5479747 -18.55129333 290.25634979 -18.83956909 290.9861908 C-19.6875 292.625 -19.6875 292.625 -21.6875 293.625 C-27.10159065 294.07617422 -31.31968313 293.00302554 -36.453125 291.28125 C-38.77911045 290.48409848 -38.77911045 290.48409848 -41.6875 290.625 C-42.545228 292.55182469 -43.37228526 294.49230705 -44.1875 296.4375 C-44.6515625 297.51644531 -45.115625 298.59539062 -45.59375 299.70703125 C-48.2355047 307.47147724 -46.64631503 316.67776544 -45.86132812 324.6953125 C-45.77354599 325.63509949 -45.68576385 326.57488647 -45.59532166 327.54315186 C-45.40604388 329.56265116 -45.21445429 331.58193492 -45.02073669 333.60101318 C-44.71344219 336.80534755 -44.41262713 340.01023454 -44.11340332 343.21533203 C-43.47708344 350.01909251 -42.83288479 356.8220942 -42.1875 363.625 C-41.43900138 371.51481346 -40.69382484 379.40491151 -39.95713806 387.2958374 C-39.66213041 390.43737937 -39.36104529 393.57829962 -39.05969238 396.71923828 C-38.87738566 398.66435994 -38.69536409 400.60950835 -38.51367188 402.5546875 C-38.42951523 403.41423035 -38.34535858 404.27377319 -38.25865173 405.15936279 C-38.02997378 407.64706997 -37.84414996 410.1317361 -37.6875 412.625 C-37.59294273 414.09286957 -37.59294273 414.09286957 -37.49647522 415.59039307 C-37.4599736 416.57263855 -37.42347198 417.55488403 -37.38586426 418.56689453 C-37.32743725 419.9097905 -37.32743725 419.9097905 -37.2678299 421.27981567 C-37.6875 423.625 -37.6875 423.625 -39.54228973 425.45285034 C-41.6875 426.625 -41.6875 426.625 -44.3125 426.4375 C-46.6875 425.625 -46.6875 425.625 -48.6875 423.625 C-49.13142395 421.5393219 -49.13142395 421.5393219 -49.40942383 418.89672852 C-49.57422493 417.38247536 -49.57422493 417.38247536 -49.74235535 415.83763123 C-49.85444839 414.71687698 -49.96654144 413.59612274 -50.08203125 412.44140625 C-50.20681351 411.2561586 -50.33159576 410.07091095 -50.4601593 408.8497467 C-50.88281468 404.77607659 -51.28851372 400.70104179 -51.6875 396.625 C-51.75974541 395.88871117 -51.83199081 395.15242233 -51.90642548 394.39382172 C-52.94122424 383.82139219 -53.93219014 373.24508573 -54.90454102 362.66674805 C-55.29973659 358.36899613 -55.70153664 354.07188797 -56.10487652 349.77489376 C-56.41945565 346.41297618 -56.72983322 343.05068026 -57.03904152 339.68826485 C-57.18548895 338.10268203 -57.33337561 336.51723138 -57.48282433 334.93192863 C-58.24663444 326.81115964 -58.87133194 318.79267825 -58.6875 310.625 C-62.9775 310.625 -67.2675 310.625 -71.6875 310.625 C-71.85876656 312.6942701 -71.85876656 312.6942701 -72.03349304 314.80534363 C-73.11200942 327.80021275 -74.21430071 340.79287421 -75.33995342 353.78374767 C-75.91821303 360.46268547 -76.48800721 367.1421434 -77.0378418 373.82348633 C-77.56923153 380.2702677 -78.12259214 386.7148177 -78.69129372 393.15841103 C-78.90447817 395.61812906 -79.10971163 398.07854947 -79.30689049 400.53960228 C-79.58426237 403.98456782 -79.88970716 407.42596045 -80.2019043 410.86791992 C-80.2774353 411.88787552 -80.35296631 412.90783112 -80.43078613 413.95869446 C-80.88024302 418.60484778 -81.21886614 421.01191614 -84.11238098 424.7973175 C-86.6875 426.625 -86.6875 426.625 -89.375 426.625 C-91.6875 425.625 -91.6875 425.625 -93.6875 422.625 C-93.73029361 420.15144683 -93.64958469 417.83413884 -93.45263672 415.37768555 C-93.40051466 414.63245227 -93.3483926 413.88721899 -93.29469109 413.11940289 C-92.62306515 403.9767416 -91.68609809 394.85576796 -90.76218033 385.73591042 C-90.09604262 379.10564486 -89.46495178 372.47191867 -88.8259449 365.83899403 C-88.26607754 360.04832228 -87.69493265 354.25916558 -87.10058594 348.47192383 C-86.5208617 342.82022498 -85.97217828 337.1662496 -85.44381332 331.50952721 C-85.23879414 329.37364432 -85.02278903 327.23878337 -84.79504776 325.10520363 C-83.45278287 312.46687029 -83.27566323 303.26474188 -88.6875 291.625 C-88.6875 290.965 -88.6875 290.305 -88.6875 289.625 C-90.08162109 290.058125 -90.08162109 290.058125 -91.50390625 290.5 C-92.74011719 290.87125 -93.97632813 291.2425 -95.25 291.625 C-96.46816406 291.99625 -97.68632812 292.3675 -98.94140625 292.75 C-102.82232624 293.65649226 -105.73644442 294.22634972 -109.6875 293.625 C-113.14222531 289.25582598 -115.13429448 284.54367644 -117.140625 279.3828125 C-117.44570984 278.61444061 -117.75079468 277.84606873 -118.06512451 277.05441284 C-119.02914361 274.62214184 -119.98345143 272.18619676 -120.9375 269.75 C-121.59310976 268.09089269 -122.24935349 266.43203576 -122.90625 264.7734375 C-124.50734583 260.72681673 -126.09974906 256.67687439 -127.6875 252.625 C-148.61404745 254.01711853 -165.45284568 261.56148234 -179.9375 276.9375 C-190.60951402 289.57368838 -195.39666112 303.71206461 -197.078125 319.91015625 C-197.20147217 321.05698883 -197.32481934 322.20382141 -197.4519043 323.38540649 C-198.61821579 334.47317101 -199.61983112 345.57637171 -200.625 356.6796875 C-200.70878151 357.60281927 -200.79256302 358.52595104 -200.87888336 359.4770565 C-201.13576029 362.30758862 -201.3922108 365.13815895 -201.6484375 367.96875 C-201.73387188 368.91250142 -201.81930626 369.85625284 -201.90732956 370.82860279 C-202.34649565 375.69026769 -202.7809957 380.55229083 -203.20800781 385.41503906 C-203.62857302 390.19987772 -204.06132927 394.98347719 -204.50222778 399.76648331 C-204.66622245 401.57056353 -204.82569389 403.37506115 -204.98043823 405.17995834 C-205.19544565 407.68221211 -205.42598195 410.18258309 -205.66015625 412.68310547 C-205.7194632 413.41752365 -205.77877014 414.15194183 -205.83987427 414.90861511 C-206.25921453 419.17725732 -207.06055298 422.20093307 -209.6875 425.625 C-212.125 426.6875 -212.125 426.6875 -214.6875 426.625 C-216.85575867 425.08250427 -216.85575867 425.08250427 -218.6875 422.625 C-218.87730067 419.97880321 -218.83510835 417.84467544 -218.55786133 415.24243164 C-218.46518714 414.12843664 -218.46518714 414.12843664 -218.37064075 412.99193668 C-218.23354284 411.37791964 -218.08653722 409.76472059 -217.93082047 408.15239334 C-217.68676344 405.6173493 -217.47014082 403.08129556 -217.2605896 400.54318237 C-216.79177473 394.94124753 -216.27983782 389.34365689 -215.76171875 383.74609375 C-215.66833536 382.73356096 -215.57495197 381.72102818 -215.47873878 380.67781258 C-214.98489451 375.32922575 -214.48721993 369.98101071 -213.98657227 364.63305664 C-213.47528878 359.16220127 -212.97837732 353.69013785 -212.48457623 348.21768093 C-212.09732649 343.95711541 -211.69894778 339.69764031 -211.29770851 335.43837166 C-211.10978484 333.42286546 -210.92596236 331.40697187 -210.74661827 329.39068413 C-209.43467152 314.69905109 -208.04289083 299.47231555 -200.9375 286.25 C-200.42751465 285.26422974 -200.42751465 285.26422974 -199.90722656 284.25854492 C-196.82277216 278.48970883 -193.00341424 273.53027228 -188.6875 268.625 C-188.08164063 267.82191406 -187.47578125 267.01882813 -186.8515625 266.19140625 C-175.42964479 252.645919 -156.50897227 242.82179063 -138.98828125 241.3046875 C-136.73875996 241.19085034 -134.48666763 241.11572359 -132.234375 241.09375 C-131.39390625 240.9390625 -130.5534375 240.784375 -129.6875 240.625 C-128.60642875 238.90488137 -128.60642875 238.90488137 -127.6875 236.625 C-125.83103346 234.46147672 -123.78782027 232.49178153 -121.75 230.5 C-121.21181641 229.96246094 -120.67363281 229.42492187 -120.11914062 228.87109375 C-113.80295355 222.625 -113.80295355 222.625 -108.6875 222.625 C-108.62270246 218.76909662 -108.64730876 214.91862583 -108.6875 211.0625 C-108.65849609 209.43344727 -108.65849609 209.43344727 -108.62890625 207.77148438 C-108.65668925 201.71469466 -108.65668925 201.71469466 -111.37036133 196.50317383 C-112.75523723 195.32926182 -114.18226377 194.20326548 -115.64697266 193.13061523 C-125.46983516 185.88275772 -131.02224919 171.42994139 -133 159.875 C-133.2442657 158.12704359 -133.47929893 156.37761795 -133.6875 154.625 C-134.43 154.52058594 -135.1725 154.41617188 -135.9375 154.30859375 C-141.41046955 152.94812547 -145.29927338 148.83639617 -148.2421875 144.1484375 C-152.88974677 135.04582142 -154.88402411 126.90103061 -153.6875 116.625 C-152.64655052 114.18363647 -151.52304364 112.34383273 -149.87890625 110.2734375 C-148.48393847 108.34335094 -148.07995491 106.9695079 -147.6875 104.625 C-148.51963082 101.85318396 -149.42590334 99.20441971 -150.4375 96.5 C-157.84501622 75.44491701 -159.83008228 52.85848594 -151.23046875 31.80078125 C-144.52800604 18.00558586 -134.0899787 10.51019437 -121.1328125 3.1796875 C-118.70604996 1.63679374 -116.81806357 -0.00974476 -114.75 -2 C-80.12399395 -33.28439482 -33.26459153 -31.86220571 0 0 Z M-110.6875 10.625 C-112.12249912 18.80449496 -108.38024347 26.34406075 -104.078125 33.18359375 C-94.4669653 46.25565269 -79.22568316 52.28650094 -63.58154297 54.98876953 C-45.16675333 57.75738343 -27.44240647 56.72038771 -9.4140625 52.15625 C-5.8197112 51.45591794 -3.20963855 51.72398781 0.3125 52.625 C1.24622679 55.42618038 1.52523937 57.50327393 1.70703125 60.421875 C2.51210782 71.94538628 3.72807289 82.6107167 7.3125 93.625 C12.02298494 86.55927259 12.80001165 76.0490273 13.3125 67.625 C13.35375 66.94695312 13.395 66.26890625 13.4375 65.5703125 C14.1024797 42.87788026 5.13877587 22.42862609 -10.20947266 6.10742188 C-23.07317241 -6.79452475 -40.02434255 -13.55610925 -58.0625 -13.8125 C-78.07420926 -13.68637992 -97.32511168 -4.28561513 -110.6875 10.625 Z M-122.6875 17.625 C-134.14465308 26.00145192 -142.20162552 35.17198974 -144.6875 49.625 C-145.00684145 53.27517164 -145.06740642 56.89955428 -145.0625 60.5625 C-145.06378906 61.56289307 -145.06507813 62.56328613 -145.06640625 63.59399414 C-144.93903008 72.6717172 -143.29231702 80.96165766 -140.6875 89.625 C-139.1154465 86.66627667 -137.8836908 83.62436958 -136.68383789 80.49853516 C-130.91356005 65.5301664 -124.02735465 53.0324712 -110.6875 43.625 C-111.07421875 42.95855469 -111.4609375 42.29210937 -111.859375 41.60546875 C-115.09384993 35.88108862 -117.7346003 30.26981971 -119.828125 24.03515625 C-120.6296514 21.78723903 -121.57281886 19.73213847 -122.6875 17.625 Z M-111.6875 58.625 C-124.51834619 71.74912267 -129.44457095 89.95014348 -133.125 107.4375 C-134.10064072 111.54752672 -134.34036075 112.34162102 -137.75 115.125 C-138.719375 115.62 -139.68875 116.115 -140.6875 116.625 C-143.2399932 120.47466187 -142.78619401 123.60885778 -142.2265625 128.02734375 C-140.9096823 134.3731795 -137.84334782 139.64093578 -132.6875 143.625 C-130.02886203 144.54142445 -127.4576325 145.0709735 -124.6875 145.625 C-123.00542122 147.30707878 -123.15258362 149.533065 -122.7878418 151.79296875 C-120.8908625 163.40486151 -117.57646838 173.64251125 -109.6875 182.625 C-109.18734375 183.21796875 -108.6871875 183.8109375 -108.171875 184.421875 C-97.67295936 195.94010283 -82.19749297 200.91769731 -66.96484375 201.65625 C-49.01424617 201.48508816 -33.61630707 195.36985297 -20.34375 183.53515625 C-10.81813338 173.69812524 -5.78552355 160.57962158 -5.03125 147.078125 C-4.6875 144.625 -4.6875 144.625 -2.6875 141.625 C-0.26171875 140.73828125 -0.26171875 140.73828125 2.625 139.9375 C7.62993348 138.2057799 10.0886177 136.56659423 12.51171875 131.84375 C14.2321315 127.07694786 14.63543216 122.74712563 13.875 117.75 C12.35063551 115.22148396 12.35063551 115.22148396 8.5625 114.5625 C4.32844197 113.1894993 3.07116787 111.15972854 1.0625 107.25 C0.10085099 105.0608803 -0.81611296 102.85158898 -1.6875 100.625 C-2.25791016 99.18640625 -2.25791016 99.18640625 -2.83984375 97.71875 C-5.65635747 89.64120122 -6.69004234 81.43625218 -7.64916992 72.96337891 C-7.75720947 72.04347168 -7.86524902 71.12356445 -7.9765625 70.17578125 C-8.11118896 68.93308472 -8.11118896 68.93308472 -8.24853516 67.6652832 C-8.54070148 65.41009301 -8.54070148 65.41009301 -10.6875 63.625 C-13.56385009 63.98761679 -16.3439964 64.45819766 -19.1875 65 C-45.39518164 69.42219966 -74.25105005 67.88962462 -97.41796875 53.76171875 C-103.56214377 50.68434365 -107.30021269 54.65326631 -111.6875 58.625 Z M106.5 187.125 C103.63938663 190.39427242 103.1605815 192.29532286 103.3125 196.625 C105.71563068 200.04764067 107.19960733 201.39314736 111.3125 202.25 C115.3868356 201.40118008 116.85655875 199.94774404 119.3125 196.625 C120.06265195 193.58191709 120.06265195 193.58191709 119.3125 190.625 C117.25001175 187.68992057 115.76970755 186.78064512 112.375 185.625 C109.23161765 185.38480392 109.23161765 185.38480392 106.5 187.125 Z M-97.6875 205.625 C-100.00786001 222.84541724 -100.00786001 222.84541724 -94.734375 238.625 C-91.66626707 242.07132357 -88.23511627 245.0567099 -84.65869141 247.96386719 C-81.67585594 250.47751748 -79.14005435 253.33184188 -76.5625 256.25 C-75.73492187 257.14976562 -74.90734375 258.04953125 -74.0546875 258.9765625 C-71.52595991 261.80573297 -69.10043983 264.6968417 -66.6875 267.625 C-62.56114536 266.03868913 -60.0548313 263.03302264 -57.1875 259.8125 C-56.12392136 258.63781848 -55.0601124 257.46334547 -53.99609375 256.2890625 C-53.17987549 255.38269043 -53.17987549 255.38269043 -52.34716797 254.45800781 C-50.71450036 252.65482034 -49.06626169 250.86760322 -47.41015625 249.0859375 C-46.88035156 248.51593018 -46.35054687 247.94592285 -45.8046875 247.35864258 C-44.79868162 246.27728105 -43.79220247 245.19635955 -42.78515625 244.1159668 C-41.85581559 243.1125693 -40.93729223 242.0990314 -40.03051758 241.07519531 C-38.6875 239.625 -38.6875 239.625 -35.859375 237.11328125 C-31.94042567 232.35727478 -33.17917142 225.53447506 -33.375 219.75 C-33.39755859 218.48929688 -33.42011719 217.22859375 -33.44335938 215.9296875 C-33.50212419 212.82690501 -33.58424149 209.72656801 -33.6875 206.625 C-38.13053324 207.49111734 -42.42516007 208.65314411 -46.7734375 209.90625 C-64.27537341 214.22308138 -80.84249301 210.81608169 -97.6875 205.625 Z M26.3125 213.625 C26.3125 217.915 26.3125 222.205 26.3125 226.625 C82.4125 226.625 138.5125 226.625 196.3125 226.625 C196.3125 222.335 196.3125 218.045 196.3125 213.625 C140.2125 213.625 84.1125 213.625 26.3125 213.625 Z M-114.3125 239.25 C-114.96476562 239.73726563 -115.61703125 240.22453125 -116.2890625 240.7265625 C-117.98374969 242.58967325 -117.98374969 242.58967325 -117.45874023 245.26953125 C-116.5805294 249.09040167 -115.25088111 252.60527734 -113.74609375 256.2109375 C-113.3153933 257.26361313 -113.3153933 257.26361313 -112.87599182 258.33755493 C-111.96480042 260.56080804 -111.04505644 262.78040297 -110.125 265 C-109.50268523 266.51408877 -108.8809345 268.0284095 -108.25976562 269.54296875 C-106.74218974 273.23969485 -105.21693762 276.93316654 -103.6875 280.625 C-99.34844926 280.12664961 -95.17530954 279.63988656 -90.96875 278.43359375 C-90.18242187 278.21123047 -89.39609375 277.98886719 -88.5859375 277.75976562 C-87.79445312 277.52966797 -87.00296875 277.29957031 -86.1875 277.0625 C-84.95386719 276.71155273 -84.95386719 276.71155273 -83.6953125 276.35351562 C-81.69120942 275.78257928 -79.68913409 275.20453295 -77.6875 274.625 C-77.6875 271.13652294 -78.05282706 270.87176615 -80.36328125 268.47265625 C-80.93876709 267.86687744 -81.51425293 267.26109863 -82.10717773 266.63696289 C-82.73180908 265.99364014 -83.35644043 265.35031738 -84 264.6875 C-85.28952263 263.33377149 -86.57857953 261.97959919 -87.8671875 260.625 C-88.51268555 259.95082031 -89.15818359 259.27664063 -89.82324219 258.58203125 C-92.45867653 255.81544643 -95.04710772 253.00762883 -97.625 250.1875 C-98.49769531 249.23488281 -99.37039062 248.28226562 -100.26953125 247.30078125 C-103.04627161 244.22797488 -105.76385787 241.1092869 -108.4453125 237.953125 C-108.85523438 237.51484375 -109.26515625 237.0765625 -109.6875 236.625 C-111.56421436 236.625 -112.88888736 238.14400612 -114.3125 239.25 Z M-20.6875 236.625 C-22.5450016 238.45505083 -24.39847232 240.28892011 -26.25 242.125 C-26.76369141 242.6303125 -27.27738281 243.135625 -27.80664062 243.65625 C-31.32321838 247.15098566 -34.61299345 250.78800989 -37.85571289 254.53710938 C-41.02399724 258.14835392 -44.32848007 261.63114179 -47.625 265.125 C-48.65077148 266.21554687 -48.65077148 266.21554687 -49.69726562 267.328125 C-51.35944507 269.09491714 -53.02286639 270.86052048 -54.6875 272.625 C-52.21078855 275.10171145 -50.3925421 275.43271579 -47.0234375 276.3515625 C-46.0132959 276.63080566 -45.0031543 276.91004883 -43.96240234 277.19775391 C-42.67543457 277.54499512 -41.3884668 277.89223633 -40.0625 278.25 C-35.97875 279.36375 -31.895 280.4775 -27.6875 281.625 C-22.7375 269.415 -17.7875 257.205 -12.6875 244.625 C-17.55566708 238.02922604 -17.55566708 238.02922604 -20.6875 236.625 Z M106.3125 237.625 C106.3125 284.815 106.3125 332.005 106.3125 380.625 C109.6125 380.625 112.9125 380.625 116.3125 380.625 C116.3125 333.435 116.3125 286.245 116.3125 237.625 C113.0125 237.625 109.7125 237.625 106.3125 237.625 Z M39.3125 249.625 C27.32328657 276.01548579 27.32328657 276.01548579 15.6875 302.5625 C15.32857666 303.39934326 14.96965332 304.23618652 14.59985352 305.09838867 C13.01452115 308.25894328 13.01452115 308.25894328 12.3125 311.625 C30.4625 311.625 48.6125 311.625 67.3125 311.625 C65.082751 304.74371228 65.082751 304.74371228 62.41479492 298.13769531 C62.07401413 297.379505 61.73323334 296.6213147 61.38212585 295.84014893 C61.02270401 295.05243103 60.66328217 294.26471313 60.29296875 293.453125 C59.91191483 292.60884949 59.5308609 291.76457397 59.13825989 290.89471436 C57.92962092 288.21959221 56.71487712 285.54729397 55.5 282.875 C54.69687237 281.09913613 53.89413499 279.32309572 53.09179688 277.546875 C48.87440457 268.21994347 44.62205967 258.90974588 40.3125 249.625 C39.9825 249.625 39.6525 249.625 39.3125 249.625 Z M182.3125 249.625 C170.32328657 276.01548579 170.32328657 276.01548579 158.6875 302.5625 C158.32857666 303.39934326 157.96965332 304.23618652 157.59985352 305.09838867 C156.01452115 308.25894328 156.01452115 308.25894328 155.3125 311.625 C173.4625 311.625 191.6125 311.625 210.3125 311.625 C208.082751 304.74371228 208.082751 304.74371228 205.41479492 298.13769531 C205.07401413 297.379505 204.73323334 296.6213147 204.38212585 295.84014893 C204.02270401 295.05243103 203.66328217 294.26471313 203.29296875 293.453125 C202.91191483 292.60884949 202.5308609 291.76457397 202.13825989 290.89471436 C200.92962092 288.21959221 199.71487712 285.54729397 198.5 282.875 C197.69687237 281.09913613 196.89413499 279.32309572 196.09179688 277.546875 C191.87440457 268.21994347 187.62205967 258.90974588 183.3125 249.625 C182.9825 249.625 182.6525 249.625 182.3125 249.625 Z M-72.9375 284.125 C-74.27554688 284.54265625 -74.27554688 284.54265625 -75.640625 284.96875 C-76.31609375 285.1853125 -76.9915625 285.401875 -77.6875 285.625 C-77.08849158 289.17491306 -76.13538874 292.17311143 -74.625 295.4375 C-73.985625 296.819375 -73.34625 298.20125 -72.6875 299.625 C-67.7375 299.625 -62.7875 299.625 -57.6875 299.625 C-56.0375 295.005 -54.3875 290.385 -52.6875 285.625 C-54.42 285.13 -56.1525 284.635 -57.9375 284.125 C-58.91203125 283.8465625 -59.8865625 283.568125 -60.890625 283.28125 C-65.35811142 282.23301296 -68.6576884 282.77348055 -72.9375 284.125 Z M9.3125 322.625 C11.60407126 332.93707065 14.45402902 339.43493493 23.26171875 345.40625 C31.3358788 350.20460798 39.87176267 351.14686199 49.08984375 348.96875 C57.96157148 345.79734656 63.90216531 340.2078454 68.40234375 332.03125 C69.66880145 328.9471688 69.66880145 328.9471688 70.3125 322.625 C50.1825 322.625 30.0525 322.625 9.3125 322.625 Z M152.3125 322.625 C154.61803091 331.84712365 157.36996871 340.02430736 165.8203125 345.14453125 C174.46323401 349.51638805 182.44324117 351.21759353 192.109375 348.9765625 C201.39815463 345.60144692 207.17384552 339.9963553 211.40234375 331.15234375 C212.58239374 328.11278589 212.58239374 328.11278589 213.3125 322.625 C193.1825 322.625 173.0525 322.625 152.3125 322.625 Z M74.0625 407.88671875 C70.91376084 410.88273749 70.91376084 410.88273749 69.3125 414.625 C97.0325 414.625 124.7525 414.625 153.3125 414.625 C148.11341583 404.22683167 138.08183927 398.18948519 127.4375 394.3125 C107.87257028 388.33293708 88.47645073 393.39769536 74.0625 407.88671875 Z " fill="#000000" transform="translate(252.6875,55.375)"/>
<path d="M0 0 C3 0.5 3 0.5 4.66423035 2.24291992 C6.17482182 4.79540038 6.37463861 6.1731723 6.37231445 9.11328125 C6.37854324 10.02102295 6.38477203 10.92876465 6.39118958 11.86401367 C6.38197983 12.83701416 6.37277008 13.81001465 6.36328125 14.8125 C6.36377975 15.81837158 6.36427826 16.82424316 6.36479187 17.8605957 C6.36245322 19.98553444 6.35273702 22.11047603 6.33618164 24.23535156 C6.3125879 27.4878822 6.31562266 30.73959302 6.32226562 33.9921875 C6.31668874 36.05729655 6.3095788 38.12240216 6.30078125 40.1875 C6.30214836 41.64700073 6.30214836 41.64700073 6.30354309 43.13598633 C6.29401108 44.04372803 6.28447906 44.95146973 6.2746582 45.88671875 C6.27005081 46.68295654 6.26544342 47.47919434 6.26069641 48.29956055 C5.96428785 50.80143271 5.37966161 52.39444374 4 54.5 C1.125 55.5 1.125 55.5 -2 55.5 C-4.16430664 54.15820312 -4.16430664 54.15820312 -6 51.5 C-6.59584499 47.99181416 -6.53619016 44.51966343 -6.49609375 40.96875 C-6.49754898 39.94068237 -6.49900421 38.91261475 -6.50050354 37.85339355 C-6.4988447 35.68136764 -6.48728521 33.50932995 -6.46655273 31.33740234 C-6.4376061 28.01218757 -6.44594307 24.68856772 -6.45898438 21.36328125 C-6.45274668 19.25259641 -6.44435549 17.14191662 -6.43359375 15.03125 C-6.43799721 13.5389386 -6.43799721 13.5389386 -6.44248962 12.01647949 C-6.42346336 10.62483582 -6.42346336 10.62483582 -6.40405273 9.20507812 C-6.39864975 8.39107544 -6.39324677 7.57707275 -6.38768005 6.73840332 C-5.67125142 2.6018577 -4.1301921 0.68836535 0 0 Z " fill="#000000" transform="translate(99,426.5)"/>
<path d="M0 0 C3.0625 0.3125 3.0625 0.3125 4.72865295 1.53259277 C6.46306956 3.84702654 6.44836611 5.22633447 6.46655273 8.10351562 C6.47923691 9.0746228 6.49192108 10.04572998 6.50498962 11.04626465 C6.50205399 12.09318481 6.49911835 13.14010498 6.49609375 14.21875 C6.5013356 15.29499634 6.50657745 16.37124268 6.51197815 17.48010254 C6.51840394 19.75642025 6.5170542 22.03277115 6.50854492 24.30908203 C6.50003268 27.7991014 6.52879404 31.28748609 6.56054688 34.77734375 C6.56215883 36.98697867 6.56158147 39.19661651 6.55859375 41.40625 C6.57544472 42.97663025 6.57544472 42.97663025 6.59263611 44.57873535 C6.58325516 45.54984253 6.57387421 46.52094971 6.56420898 47.52148438 C6.56395973 48.80363831 6.56395973 48.80363831 6.56370544 50.11169434 C6.0625 52.3125 6.0625 52.3125 4.19520569 54.12365723 C2.0625 55.3125 2.0625 55.3125 -0.5625 55.125 C-2.9375 54.3125 -2.9375 54.3125 -4.9375 52.3125 C-5.19146729 50.18725586 -5.19146729 50.18725586 -5.19628906 47.52734375 C-5.20259338 46.5329126 -5.20889771 45.53848145 -5.21539307 44.51391602 C-5.2113446 43.43682373 -5.20729614 42.35973145 -5.203125 41.25 C-5.20503845 40.147771 -5.2069519 39.04554199 -5.20892334 37.90991211 C-5.21028612 35.57633232 -5.20658322 33.24274497 -5.19824219 30.90917969 C-5.18754421 27.32730153 -5.19813458 23.74592497 -5.2109375 20.1640625 C-5.20961592 17.90104055 -5.20705357 15.63801892 -5.203125 13.375 C-5.20717346 12.29790771 -5.21122192 11.22081543 -5.21539307 10.11108398 C-5.20908875 9.11665283 -5.20278442 8.12222168 -5.19628906 7.09765625 C-5.19469788 6.21988525 -5.19310669 5.34211426 -5.19146729 4.43774414 C-4.76497187 0.86875346 -3.43117521 0.36501864 0 0 Z " fill="#000000" transform="translate(274.9375,426.6875)"/>
</svg>
